HIERARCHY
ROOT joint_Root
{
	OFFSET 0.0 0.0 0.0
	CHANNELS 6 Xposition Yposition Zposition Zrotation Xrotation Yrotation 
	JOINT Hips
	{
		OFFSET 4.5925 91.4895 -427.239
		CHANNELS 6 Xposition Yposition Zposition Zrotation Xrotation Yrotation 
		JOINT Spine
		{
			OFFSET 15.7357 0.0 0.0
			CHANNELS 6 Xposition Yposition Zposition Zrotation Xrotation Yrotation 
			JOINT Chest
			{
				OFFSET 8.98455 -0.406207 0.0
				CHANNELS 6 Xposition Yposition Zposition Zrotation Xrotation Yrotation 
				JOINT Neck
				{
					OFFSET 16.3773 0.0 0.0
					CHANNELS 6 Xposition Yposition Zposition Zrotation Xrotation Yrotation 
					JOINT Head
					{
						OFFSET 6.45672 0.0 0.0
						CHANNELS 6 Xposition Yposition Zposition Zrotation Xrotation Yrotation 
						End Site
						{
							OFFSET 0.0 0.0 0.0
						}
					}
				}
				JOINT Shoulder_L
				{
					OFFSET 12.9942 -0.242716 4.98039
					CHANNELS 6 Xposition Yposition Zposition Zrotation Xrotation Yrotation 
					JOINT UpperArm_L
					{
						OFFSET 5.34809 0.0 0.0
						CHANNELS 6 Xposition Yposition Zposition Zrotation Xrotation Yrotation 
						JOINT LowerArm_L
						{
							OFFSET 24.3286 1.87007e-05 0.0
							CHANNELS 6 Xposition Yposition Zposition Zrotation Xrotation Yrotation 
							JOINT Hand_L
							{
								OFFSET 22.2916 0.0 0.0
								CHANNELS 6 Xposition Yposition Zposition Zrotation Xrotation Yrotation 
								End Site
								{
									OFFSET 0.0 0.0 0.0
								}
							}
						}
					}
				}
				JOINT Shoulder_R
				{
					OFFSET 12.9945 -0.242716 -4.98039
					CHANNELS 6 Xposition Yposition Zposition Zrotation Xrotation Yrotation 
					JOINT UpperArm_R
					{
						OFFSET -5.34813 0.0 0.0
						CHANNELS 6 Xposition Yposition Zposition Zrotation Xrotation Yrotation 
						JOINT LowerArm_R
						{
							OFFSET -24.3289 0.000322201 0.0
							CHANNELS 6 Xposition Yposition Zposition Zrotation Xrotation Yrotation 
							JOINT Hand_R
							{
								OFFSET -22.2915 -0.000108084 0.0
								CHANNELS 6 Xposition Yposition Zposition Zrotation Xrotation Yrotation 
								End Site
								{
									OFFSET 0.0 0.0 0.0
								}
							}
						}
					}
				}
			}
		}
		JOINT UpperLeg_L
		{
			OFFSET -2.19248 -6.46944 0.0
			CHANNELS 6 Xposition Yposition Zposition Zrotation Xrotation Yrotation 
			JOINT LowerLeg_L
			{
				OFFSET 39.0811 0.0 -1.23785e-05
				CHANNELS 6 Xposition Yposition Zposition Zrotation Xrotation Yrotation 
				JOINT Foot_L
				{
					OFFSET 40.9854 0.0 -1.26872e-05
					CHANNELS 6 Xposition Yposition Zposition Zrotation Xrotation Yrotation 
					JOINT Toes_L
					{
						OFFSET 11.7543 0.0 0.0
						CHANNELS 6 Xposition Yposition Zposition Zrotation Xrotation Yrotation 
						End Site
						{
							OFFSET 0.0 0.0 0.0
						}
					}
				}
			}
		}
		JOINT UpperLeg_R
		{
			OFFSET -2.19251 6.46944 0.0
			CHANNELS 6 Xposition Yposition Zposition Zrotation Xrotation Yrotation 
			JOINT LowerLeg_R
			{
				OFFSET -39.0811 -0.00228153 -0.0401928
				CHANNELS 6 Xposition Yposition Zposition Zrotation Xrotation Yrotation 
				JOINT Foot_R
				{
					OFFSET -40.9854 0.0 0.0
					CHANNELS 6 Xposition Yposition Zposition Zrotation Xrotation Yrotation 
					JOINT Toes_R
					{
						OFFSET -11.7543 0.0 0.0
						CHANNELS 6 Xposition Yposition Zposition Zrotation Xrotation Yrotation 
						End Site
						{
							OFFSET 0.0 0.0 0.0
						}
					}
				}
			}
		}
	}
}
MOTION
Frames:	7
Frame Time:	0.0333333
0.000000 0.000000 0.000000 0.000000 0.000000 -0.000000 -1.563420 90.387000 6.330620 89.357800 -3.148950 7.648160 15.735700 0.000005 -0.000001 85.655200 83.719200 -85.478800 8.984550 -0.406207 -0.000000 4.761430 -0.954474 0.392215 16.377300 -0.000001 -0.000001 3.972890 -4.396300 2.262410 6.456720 -0.000001 -0.000000 -11.983900 -3.816940 1.084250 12.994200 -0.242716 4.980390 -92.044700 6.671850 -72.918600 5.348090 -0.000007 -0.000001 -67.977100 22.902300 -10.199200 24.328600 0.000019 0.000005 6.413100 19.288600 -18.791700 22.291600 -0.000001 0.000005 8.537880 5.269440 0.911704 12.994500 -0.242716 -4.980390 88.107000 10.832000 -80.025500 -5.348130 -0.000001 -0.000004 -65.710900 19.790400 -6.877440 -24.328900 0.000322 -0.000009 -0.874752 -2.531720 -19.046600 -22.291500 -0.000108 -0.000004 14.899500 5.401270 -2.978880 -2.192480 -6.469440 -0.000000 -174.133000 -10.506000 3.302900 39.081100 -0.000007 -0.000012 -0.175691 0.323268 28.523600 40.985400 -0.000006 -0.000013 -1.276730 3.864690 -73.803200 11.754300 -0.000000 0.000003 -0.000084 -0.000885 -16.611600 -2.192510 6.469440 -0.000001 174.677000 18.292100 -175.538000 -39.081100 -0.002282 -0.040193 -0.088087 0.172176 27.959900 -40.985400 0.000008 0.000006 3.836620 9.824640 -74.559900 -11.754300 -0.000006 -0.000006 -0.003187 -0.042704 -18.309900
0.000000 0.000000 0.000000 0.000000 0.000000 -0.000000 -1.554080 90.395500 6.295480 89.354300 -3.149090 7.656830 15.735700 0.000005 -0.000001 85.801900 83.753200 -85.634700 8.984550 -0.406207 -0.000000 4.695930 -0.917394 0.371587 16.377300 -0.000001 -0.000001 4.301650 -4.511330 2.240730 6.456720 -0.000001 -0.000000 -11.654100 -4.027380 0.888953 12.994200 -0.242716 4.980390 -92.061900 6.564250 -72.519400 5.348090 -0.000007 -0.000001 -67.707200 20.504600 -10.292100 24.328600 0.000019 0.000005 7.049840 20.253100 -19.658600 22.291600 -0.000001 0.000005 7.416960 5.286780 0.436133 12.994500 -0.242716 -4.980390 88.075700 10.593900 -79.643500 -5.348130 -0.000001 -0.000004 -65.478700 17.670700 -7.016430 -24.328900 0.000322 -0.000009 -0.965910 -2.743240 -19.385800 -22.291500 -0.000108 -0.000004 15.029900 5.410480 -3.280660 -2.192480 -6.469440 -0.000000 -174.138000 -10.472900 3.279790 39.081100 -0.000007 -0.000012 -0.178255 0.328060 28.518200 40.985400 -0.000006 -0.000013 -1.275750 3.854590 -73.769600 11.754300 -0.000000 0.000003 -0.000088 -0.000919 -16.612900 -2.192510 6.469440 -0.000001 174.673000 18.352800 -175.551000 -39.081100 -0.002282 -0.040193 -0.084838 0.166070 27.957900 -40.985400 0.000008 0.000006 3.912800 9.855110 -74.547100 -11.754300 -0.000006 -0.000006 -0.003296 -0.043902 -18.358600
0.000000 0.000000 0.000000 0.000000 0.000000 -0.000000 -1.551520 90.396500 6.264600 89.371500 -3.147770 7.730320 15.735700 0.000005 -0.000001 85.997100 83.788900 -85.860100 8.984550 -0.406207 -0.000000 4.627290 -0.869338 0.308914 16.377300 -0.000001 -0.000001 4.646110 -4.670050 2.250200 6.456720 -0.000001 -0.000000 -11.152300 -4.243260 0.688527 12.994200 -0.242716 4.980390 -92.049800 6.375720 -72.135700 5.348090 -0.000007 -0.000001 -66.519700 18.230700 -10.730200 24.328600 0.000019 0.000005 7.933290 21.958600 -20.438500 22.291600 -0.000001 0.000005 6.033920 5.309470 -0.198505 12.994500 -0.242716 -4.980390 88.060800 10.288200 -79.265300 -5.348130 -0.000001 -0.000004 -64.672700 15.505800 -7.261310 -24.328900 0.000322 -0.000009 -1.142920 -3.203300 -19.631300 -22.291500 -0.000108 -0.000004 15.073700 5.417180 -3.504510 -2.192480 -6.469440 -0.000000 -174.152000 -10.494000 3.333110 39.081100 -0.000007 -0.000012 -0.174319 0.320710 28.526200 40.985400 -0.000006 -0.000013 -1.268870 3.846090 -73.757000 11.754300 -0.000000 0.000003 -0.000085 -0.000892 -16.611900 -2.192510 6.469440 -0.000001 174.632000 18.341500 -175.506000 -39.081100 -0.002282 -0.040193 -0.086334 0.168718 27.981700 -40.985400 0.000008 0.000006 3.887440 9.858310 -74.535400 -11.754300 -0.000006 -0.000006 -0.003256 -0.043471 -18.341100
0.000000 0.000000 0.000000 0.000000 0.000000 -0.000000 -1.559960 90.392100 6.247570 89.372900 -3.169030 7.891290 15.735700 0.000005 -0.000001 86.176100 83.808300 -86.062800 8.984550 -0.406207 -0.000000 4.591000 -0.827511 0.259600 16.377300 -0.000001 -0.000001 5.093700 -4.788900 2.222290 6.456720 -0.000001 -0.000000 -10.620700 -4.462240 0.507728 12.994200 -0.242716 4.980390 -92.028800 6.191860 -71.818500 5.348090 -0.000007 -0.000001 -64.432300 15.737800 -11.538800 24.328600 0.000019 0.000005 8.396550 23.232000 -20.516000 22.291600 -0.000001 0.000005 4.812080 5.314970 -0.351959 12.994500 -0.242716 -4.980390 88.055400 9.959680 -78.893500 -5.348130 -0.000001 -0.000004 -63.161200 13.128700 -7.796960 -24.328900 0.000322 -0.000009 -1.220780 -3.433370 -19.571600 -22.291500 -0.000108 -0.000004 14.910700 5.416360 -3.476900 -2.192480 -6.469440 -0.000000 -174.108000 -10.480800 3.481510 39.081100 -0.000007 -0.000012 -0.179418 0.329795 28.547800 40.985400 -0.000006 -0.000013 -1.279790 3.846580 -73.761200 11.754300 -0.000000 0.000003 -0.000088 -0.000922 -16.613000 -2.192510 6.469440 -0.000001 174.565000 18.386100 -175.359000 -39.081100 -0.002282 -0.040193 -0.090481 0.176309 28.010600 -40.985400 0.000008 0.000006 3.835310 9.908830 -74.525600 -11.754300 -0.000006 -0.000006 -0.003209 -0.042944 -18.319600
0.000000 0.000000 0.000000 0.000000 0.000000 -0.000000 -1.566140 90.383700 6.212850 89.376000 -3.205150 8.015590 15.735700 0.000005 -0.000001 86.225400 83.842400 -86.136100 8.984550 -0.406207 -0.000000 4.523480 -0.811860 0.210442 16.377300 -0.000001 -0.000001 5.600250 -4.902210 2.169420 6.456720 -0.000001 -0.000000 -10.011000 -4.668510 0.354130 12.994200 -0.242716 4.980390 -91.985000 5.975010 -71.584800 5.348090 -0.000007 -0.000001 -61.871000 12.340500 -12.572000 24.328600 0.000019 0.000005 8.376970 24.244200 -19.728500 22.291600 -0.000001 0.000005 4.491660 5.306480 -0.111060 12.994500 -0.242716 -4.980390 88.070900 9.593090 -78.573900 -5.348130 -0.000001 -0.000004 -61.174800 10.071400 -8.663960 -24.328900 0.000322 -0.000009 -1.191380 -3.459040 -19.001500 -22.291500 -0.000108 -0.000004 14.863500 5.415060 -3.433220 -2.192480 -6.469440 -0.000000 -174.079000 -10.515300 3.555520 39.081100 -0.000007 -0.000012 -0.178160 0.326535 28.617400 40.985400 -0.000006 -0.000013 -1.272830 3.867710 -73.774900 11.754300 -0.000000 0.000003 -0.000082 -0.000869 -16.611000 -2.192510 6.469440 -0.000001 174.525000 18.316900 -175.284000 -39.081100 -0.002282 -0.040193 -0.097548 0.189143 28.067100 -40.985400 0.000008 0.000006 3.744260 9.953280 -74.514200 -11.754300 -0.000006 -0.000006 -0.003229 -0.043168 -18.328800
0.000000 0.000000 0.000000 0.000000 0.000000 -0.000000 -1.579800 90.369200 6.201630 89.374400 -3.239910 8.251740 15.735700 0.000005 -0.000001 86.173100 83.855700 -86.104900 8.984550 -0.406207 -0.000000 4.496110 -0.820702 0.168481 16.377300 -0.000001 -0.000001 6.141150 -5.006080 2.122080 6.456720 -0.000001 -0.000000 -9.254580 -4.855750 0.193617 12.994200 -0.242716 4.980390 -91.901900 5.672950 -71.431400 5.348090 -0.000007 -0.000001 -59.071000 8.249790 -13.601200 24.328600 0.000019 0.000005 8.057720 25.098000 -18.456700 22.291600 -0.000001 0.000005 5.223210 5.284600 0.495701 12.994500 -0.242716 -4.980390 88.102500 9.199920 -78.292700 -5.348130 -0.000001 -0.000004 -58.896200 6.132440 -9.666390 -24.328900 0.000322 -0.000009 -1.204660 -3.671840 -18.164000 -22.291500 -0.000108 -0.000004 14.905700 5.411170 -3.303880 -2.192480 -6.469440 -0.000000 -174.013000 -10.535300 3.760160 39.081100 -0.000007 -0.000012 -0.178875 0.326820 28.693000 40.985400 -0.000006 -0.000013 -1.282230 3.873530 -73.808900 11.754300 -0.000000 0.000003 -0.000086 -0.000904 -16.612300 -2.192510 6.469440 -0.000001 174.427000 18.314300 -175.064000 -39.081100 -0.002282 -0.040193 -0.104082 0.200914 28.124400 -40.985400 0.000008 0.000006 3.645470 10.048600 -74.520100 -11.754300 -0.000006 -0.000006 -0.003157 -0.042368 -18.296200
0.000000 0.000000 0.000000 0.000000 0.000000 -0.000000 -1.589490 90.355000 6.170480 89.362200 -3.323020 8.443600 15.735700 0.000005 -0.000001 86.122800 83.883700 -86.056100 8.984550 -0.406207 -0.000000 4.439380 -0.827678 0.165389 16.377300 -0.000001 -0.000001 6.666830 -5.117460 2.163210 6.456720 -0.000001 -0.000000 -8.403470 -5.009340 -0.166764 12.994200 -0.242716 4.980390 -91.785100 5.272660 -71.265800 5.348090 -0.000007 -0.000001 -56.260400 3.949340 -14.621600 24.328600 0.000019 0.000005 7.182870 24.867500 -16.682200 22.291600 -0.000001 0.000005 6.554760 5.263700 1.065520 12.994500 -0.242716 -4.980390 88.153000 8.772980 -78.061700 -5.348130 -0.000001 -0.000004 -56.416200 1.401370 -10.853000 -24.328900 0.000322 -0.000009 -1.214180 -3.929270 -17.172600 -22.291500 -0.000108 -0.000004 14.769500 5.402300 -3.012220 -2.192480 -6.469440 -0.000000 -173.947000 -10.581300 3.908030 39.081100 -0.000007 -0.000012 -0.180484 0.328503 28.785200 40.985400 -0.000006 -0.000013 -1.292030 3.859350 -73.845100 11.754300 -0.000000 0.000003 -0.000084 -0.000886 -16.611600 -2.192510 6.469440 -0.000001 174.382000 18.210900 -174.927000 -39.081100 -0.002282 -0.040193 -0.111272 0.213697 28.198900 -40.985400 0.000008 0.000006 3.567230 10.119000 -74.522800 -11.754300 -0.000006 -0.000006 -0.003144 -0.042224 -18.290300
